<svg xmlns="http://www.w3.org/2000/svg" xml:space="preserve" width="299.73758" height="299.74011" viewBox="0 0 299.73758 299.74011"><defs><clipPath id="a" clipPathUnits="userSpaceOnUse"><path d="M0 0h623.622v793.701H0Z"/></clipPath></defs><g style="stroke-width:.524072"><path d="M255.995 501.118c0-32.244-26.06-58.383-58.208-58.383-32.14 0-58.203 26.14-58.203 58.383 0 32.241 26.062 58.385 58.203 58.385 32.149 0 58.208-26.144 58.208-58.385" style="fill:#fff;fill-opacity:1;fill-rule:nonzero;stroke:none;stroke-width:.524072" transform="matrix(2.54418 0 0 -2.54418 -353.506 1425.004)"/><path d="M237.372 501.195c0-21.825-17.693-39.518-39.52-39.518-21.822 0-39.517 17.693-39.517 39.518s17.695 39.52 39.517 39.52c21.827 0 39.52-17.696 39.52-39.52" style="fill:#fff;fill-opacity:1;fill-rule:nonzero;stroke:none;stroke-width:.524072" transform="matrix(2.54418 0 0 -2.54418 -353.506 1425.004)"/><g style="fill:#2056ae;stroke-width:.68047"><path d="M0 0v-1.607h9.125v-8.928H5.646v4.75H3.39v-4.75H-.827v-1.606h11.243a.92.92 0 0 1 .887.906L11.302 0Z" style="fill:#2056ae;fill-opacity:1;fill-rule:nonzero;stroke:none;stroke-width:.68047" transform="scale(1.95942 -1.95942)rotate(11.044 80.511 293.675)"/></g><g style="fill:#2056ae;stroke-width:.660886"><g style="fill:#2056ae;stroke-width:.660886"><path d="M0 0h10.738v1.627H1.151v1.916h9.587V5.17H-1.027V1.144q0-.624.254-.891Q-.535.001 0 0" style="fill:#2056ae;fill-opacity:1;fill-rule:nonzero;stroke:none;stroke-width:.660886" transform="matrix(1.9835 .33033 .32691 -1.99764 165.494 24.575)"/></g><g style="fill:#2056ae;stroke-width:.660886"><path d="M0 0h4.24C3.161-.61 2.469-1.546 2.469-2.597c0-1.838 2.116-3.328 4.725-3.328s4.724 1.49 4.724 3.328c0 1.051-.692 1.987-1.77 2.597h4.24v1.654H0Zm7.194-.763c1.349 0 2.445-.821 2.445-1.834S8.543-4.43 7.194-4.43c-1.352 0-2.446.82-2.446 1.833S5.842-.763 7.194-.763" style="fill:#2056ae;fill-opacity:1;fill-rule:nonzero;stroke:none;stroke-width:.660886" transform="matrix(1.9835 .33033 .32691 -1.99764 160.04 28.791)"/></g></g><g style="fill:#2056ae;stroke-width:.405818"><path d="M0 0v2.75h1.436v-6.87H0v3.064h-1.647V-4.12h-1.438v6.87h1.438V0Z" style="fill:#2056ae;fill-opacity:1;fill-rule:nonzero;stroke:none;stroke-width:.405818" transform="scale(3.28555 -3.28555)rotate(-7.34 -617.77 -357.38)"/></g><path d="M196.287 457.465h1.706v-8.944h-1.706z" style="fill:#2056ae;fill-opacity:1;fill-rule:nonzero;stroke:none;stroke-width:.524072" transform="matrix(2.54418 0 0 -2.54418 -353.506 1425.004)"/><g clip-path="url(#a)" style="fill:#2056ae;stroke-width:.404416" transform="matrix(3.21234 -.40103 -.38622 -3.33555 -1539.033 691.88)"><g style="fill:#2056ae;stroke-width:.404416"><path d="M0 0c.01.638-.095 1.199-.857 1.199-.894 0-.894-1.207-.894-2.539 0-2.153.21-2.532 1.029-2.532.237 0 .494.056.713.133v1.522H-.79v1.057h2.217v-3.483c-.39-.076-1.37-.228-1.941-.228-2.416 0-2.693.999-2.693 3.607 0 1.731.086 3.491 2.437 3.491 1.407 0 2.283-.789 2.197-2.227z" style="fill:#2056ae;fill-opacity:1;fill-rule:nonzero;stroke:none;stroke-width:.404416" transform="translate(538.877 62.661)"/></g></g><g style="fill:#2056ae;stroke-width:.410009"><path d="M0 0v2.75h1.438v-6.87H0v3.064h-1.646V-4.12h-1.437v6.87h1.437V0Z" style="fill:#2056ae;fill-opacity:1;fill-rule:nonzero;stroke:none;stroke-width:.410009" transform="matrix(3.07432 -1.06739 -1.06938 -3.06858 190.468 263.132)"/></g><g style="fill:#2056ae;stroke-width:.398579"><path d="M0 0c-1.779 0-2.112 1.046-2.036 2.235h1.437c0-.656.028-1.208.818-1.208.486 0 .724.314.724.781 0 1.236-2.893 1.313-2.893 3.358 0 1.076.513 1.932 2.265 1.932 1.397 0 2.093-.628 1.999-2.064h-1.4c0 .514-.085 1.036-.665 1.036-.467 0-.743-.256-.743-.732 0-1.304 2.892-1.19 2.892-3.35C2.398.209 1.095 0 0 0" style="fill:#2056ae;fill-opacity:1;fill-rule:nonzero;stroke:none;stroke-width:.398579" transform="matrix(2.9032 -1.7087 -1.76764 -2.81419 223.922 262.367)"/></g><g style="fill:#2056ae;stroke-width:.403956"><path d="M0 0c0 1.817 0 3.548 2.371 3.548 1.465 0 2.056-.807 1.998-2.283H2.961c0 .914-.162 1.256-.59 1.256-.809 0-.914-.76-.914-2.521 0-1.762.105-2.522.914-2.522.666 0 .638.856.656 1.399h1.419c0-1.837-.734-2.426-2.075-2.426C0-3.549 0-1.799 0 0" style="fill:#2056ae;fill-opacity:1;fill-rule:nonzero;stroke:none;stroke-width:.403956" transform="matrix(2.3777 -2.29065 -2.33647 -2.33106 230.028 243.578)"/></g><g style="fill:#2056ae;stroke-width:.407168"><path d="M0 0v2.75h1.438v-6.87H0v3.064h-1.646V-4.12h-1.437v6.87h1.437V0Z" style="fill:#2056ae;fill-opacity:1;fill-rule:nonzero;stroke:none;stroke-width:.407168" transform="matrix(1.82006 -2.7486 -2.65254 -1.88597 249.393 218.281)"/></g><g style="fill:#2056ae;stroke-width:.411159"><path d="M0 0c-.808 0-.913.761-.913 2.522S-.808 5.043 0 5.043c.809 0 .914-.76.914-2.521S.809 0 0 0m0-1.027c2.37 0 2.37 1.75 2.37 3.549 0 1.817 0 3.549-2.37 3.549s-2.369-1.732-2.369-3.549c0-1.799 0-3.549 2.369-3.549" style="fill:#2056ae;fill-opacity:1;fill-rule:nonzero;stroke:none;stroke-width:.411159" transform="matrix(1.3064 -2.93878 -2.99641 -1.30924 269.17 205.234)"/></g><g style="fill:#2056ae;stroke-width:.411159"><path d="M0 0c-.808 0-.913.761-.913 2.522S-.808 5.043 0 5.043c.809 0 .914-.76.914-2.521S.809 0 0 0m0-1.027c2.37 0 2.37 1.75 2.37 3.549 0 1.817 0 3.549-2.37 3.549s-2.369-1.732-2.369-3.549c0-1.799 0-3.549 2.369-3.549" style="fill:#2056ae;fill-opacity:1;fill-rule:nonzero;stroke:none;stroke-width:.411159" transform="matrix(.78646 -3.11843 -3.1757 -.77943 277.59 182.258)"/></g><g style="fill:#2056ae;stroke-width:.410641"><path d="M0 0v6.87h1.437V1.142h2.152V0Z" style="fill:#2056ae;fill-opacity:1;fill-rule:nonzero;stroke:none;stroke-width:.410641" transform="matrix(.14804 -3.07612 -3.42088 -.13312 284.617 165.312)"/></g><g style="stroke-width:.524072"><path d="M0 0c0 31.666 25.762 57.428 57.427 57.428 31.667 0 57.428-25.762 57.428-57.428 0-31.667-25.761-57.43-57.428-57.43C25.762-57.43 0-31.667 0 0m-1.479 0c0-32.482 26.425-58.908 58.906-58.908S116.334-32.482 116.334 0c0 32.48-26.426 58.906-58.907 58.906S-1.479 32.48-1.479 0" style="fill:#2056ae;fill-opacity:1;fill-rule:nonzero;stroke:none;stroke-width:.524072" transform="matrix(2.54418 0 0 -2.54418 3.763 149.868)"/></g><g style="stroke-width:.524072"><path d="m0 0-8.814-1.151.251-1.931 3.534.461.138-1.049.014-.105q.118-.917.301-1.297.186-.38.535-.639.352-.264.9-.353.551-.088 1.239 0 1.476.193 1.986.865.505.671.305 2.232zm-1.033-2.855q.086-.674-.145-.956-.232-.28-.918-.371-.723-.095-1.027.135-.305.23-.41 1.028l-.078.608 2.476.325z" style="fill:#2056ae;fill-opacity:1;fill-rule:nonzero;stroke:none;stroke-width:.524072" transform="matrix(2.54418 0 0 -2.54418 37.574 157.657)"/></g><g style="stroke-width:.524072"><path d="m0 0 7.764 4.982-.698 2.264-9.224-.224.549-1.79 2.031.145.758-2.465-1.754-1.051Zm5.789 5.648-3.41-2.013-.559 1.814Z" style="fill:#2056ae;fill-opacity:1;fill-rule:nonzero;stroke:none;stroke-width:.524072" transform="matrix(2.54418 0 0 -2.54418 23.835 198.18)"/></g><g style="stroke-width:.524072"><path d="m0 0 7.955 3.972.809-1.626L.816-1.625Z" style="fill:#2056ae;fill-opacity:1;fill-rule:nonzero;stroke:none;stroke-width:.524072" transform="matrix(2.54418 0 0 -2.54418 27.131 205.639)"/></g><g style="stroke-width:.524072"><path d="M0 0q-.05-.056-.107-.114-.066-.058-.19-.169-.991-.868-2.004-.802-1.01.069-1.885 1.067-.405.463-.632.97-.23.51-.225.936-.004.726.504 1.475.506.747 1.984 2.039 1.012.887 1.66 1.269c.436.255.848.408 1.245.459a2.06 2.06 0 0 0 1.191-.205q.603-.288 1.145-.908.888-1.014.822-1.981-.07-.966-1.09-1.861l-.127-.112L1.07 3.458l.125.112q.536.468.645.859c.076.259.014.506-.188.732q-.413.473-1.017.255-.608-.215-2.248-1.653-1.378-1.207-1.674-1.793-.296-.583.119-1.061.301-.34.727-.271.424.07.982.56c.023.022.063.055.107.1l.114.111z" style="fill:#2056ae;fill-opacity:1;fill-rule:nonzero;stroke:none;stroke-width:.524072" transform="matrix(2.54418 0 0 -2.54418 54.703 233.451)"/></g><g style="stroke-width:.524072"><path d="m0 0-1.463 1.139 5.451 7.018 1.465-1.136-2.129-2.742 1.594-1.238 2.129 2.742 1.467-1.139-5.453-7.02-1.463 1.137 2.41 3.105-1.596 1.238Z" style="fill:#2056ae;fill-opacity:1;fill-rule:nonzero;stroke:none;stroke-width:.524072" transform="matrix(2.53648 .1978 .1978 -2.53648 58.657 248.263)"/></g><g style="stroke-width:.524072"><path d="m0 0 1.762 9.058-2.117 1.06-6.213-6.83 1.675-.838 1.297 1.567 2.305-1.153L-1.74.871zm-.086 8.089-.896-3.858-1.7.85z" style="fill:#2056ae;fill-opacity:1;fill-rule:nonzero;stroke:none;stroke-width:.524072" transform="matrix(2.54099 .12742 .12742 -2.54099 89.333 269.614)"/></g><g style="stroke-width:.524072"><path d="m0 0 2.715 8.463 1.732-.555L1.73-.555Z" style="fill:#2056ae;fill-opacity:1;fill-rule:nonzero;stroke:none;stroke-width:.524072" transform="matrix(2.53702 .19076 .19076 -2.53702 96.832 273.04)"/></g><g style="stroke-width:.524072"><path d="M0 0a2.57 2.57 0 0 0-2.57-2.575A2.57 2.57 0 0 0-5.139 0 2.57 2.57 0 1 0 0 0" style="fill:#2056ae;fill-opacity:1;fill-rule:nonzero;stroke:none;stroke-width:.524072" transform="matrix(2.54418 0 0 -2.54418 34.246 121.757)"/></g><g style="stroke-width:.524072"><path d="M0 0a2.572 2.572 0 1 0-5.141 0A2.57 2.57 0 1 0 0 0" style="fill:#2056ae;fill-opacity:1;fill-rule:nonzero;stroke:none;stroke-width:.524072" transform="matrix(2.54418 0 0 -2.54418 278.358 121.8)"/></g><g style="stroke-width:.536932"><g style="stroke-width:.536932"><path d="m0 0-.484-.637-2.203 1.672-.958-1.258 8.173-6.212.521.685a.74.74 0 0 1-.152 1.022L.531-1.41l.486.639 4.957-3.771.533.703-.004.003a.73.73 0 0 1-.142 1.031l-7.584 5.766-.98-1.289z" style="fill:#2056ae;fill-opacity:1;fill-rule:nonzero;stroke:none;stroke-width:.536932" transform="matrix(2.48323 0 0 -2.48323 50.408 66.253)"/></g><g style="stroke-width:.536932"><path d="m0 0-1.713-2.251-1.706 1.295 1.71 2.254zm-2.703 2.054-1.71-2.253-2.213 1.682-.956-1.257 5.322-4.048a.74.74 0 0 1 1.023.129L1.516-.07A.74.74 0 0 1 1.365.949l-5.323 4.043-.956-1.256Z" style="fill:#2056ae;fill-opacity:1;fill-rule:nonzero;stroke:none;stroke-width:.536932" transform="matrix(2.48323 0 0 -2.48323 49.69 81.18)"/></g></g><g style="stroke-width:.514662"><path d="m0 0-5.388 6.949-.988-.766 4.35-5.61-5.488-4.256-.933 1.198 2.682 2.089L-6.792.926l-2.685-2.082-.736.952 2.685 2.081-1.032 1.329-2.684-2.084-1.018 1.313-.984-.767 5.359-6.913a.717.717 0 0 1 .978-.113z" style="fill:#2056ae;fill-opacity:1;fill-rule:nonzero;stroke:none;stroke-width:.514662" transform="matrix(2.57396 0 0 -2.60754 267.822 78.294)"/></g><g style="stroke-width:.524072"><g style="stroke-width:.524072"><path d="m0 0-1.452.875-3.033-5.03-6.212 3.747-.646-1.074 6.209-3.746-1.62-2.686.915-.551a.74.74 0 0 1 .912.3l3.45 5.716 1.171-.708.646 1.07-1.173.707z" style="fill:#2056ae;fill-opacity:1;fill-rule:nonzero;stroke:none;stroke-width:.524072" transform="matrix(2.54418 0 0 -2.54418 234.2 41.256)"/></g><g style="stroke-width:.524072"><path d="M0 0c.66-.398.865-1.271.455-1.949-.41-.677-1.275-.904-1.935-.504-.659.397-.864 1.267-.456 1.947C-1.525.172-.66.398 0 0m-2.047-3.388c1.397-.84 3.101-.565 3.811.612.27.448.358.959.291 1.467l.849-.511.607 1.005-2.156 1.3.485.801-1.547.936-.483-.804-2.154 1.3-.609-1.007.839-.504A2.2 2.2 0 0 1-3.277.269c-.712-1.179-.161-2.815 1.23-3.657" style="fill:#2056ae;fill-opacity:1;fill-rule:nonzero;stroke:none;stroke-width:.524072" transform="matrix(2.54418 0 0 -2.54418 218.353 36.088)"/></g></g><g style="stroke-width:.524072"><g style="stroke-width:.524072"><path d="m0 0-.716-.365-1.263 2.459-1.407-.722 4.693-9.129.764.395a.737.737 0 0 1 .304.983L-.134-1.5l.714.367 2.845-5.539.783.403-.002.003c.363.188.507.63.318.993L.174 3.199l-1.442-.74z" style="fill:#2056ae;fill-opacity:1;fill-rule:nonzero;stroke:none;stroke-width:.524072" transform="scale(2.54418 -2.54418)rotate(4.329 205.644 452.412)"/></g><g style="stroke-width:.524072"><path d="m0 0 1.862.957-.592 1.151-5.208-2.676.591-1.153 1.86.958C.386-4.53-.8-5.664-1.376-6.301l.627-1.227c.585.403 1.04.904 1.37 1.493q.549.958.498 2.023a3.7 3.7 0 0 1 1.941-.772q1.006-.112 2.007.244l-.628 1.226C3.585-3.415 1.975-3.717 0 0" style="fill:#2056ae;fill-opacity:1;fill-rule:nonzero;stroke:none;stroke-width:.524072" transform="scale(2.54418 -2.54418)rotate(4.329 222.957 381.854)"/></g></g><g style="stroke-width:.524072"><path d="M0 0h15.297l.002-1.031a44.5 44.5 0 0 0-3.33-16.942L0-5.975Z" style="fill:#fff;fill-opacity:1;fill-rule:nonzero;stroke:none;stroke-width:.524072" transform="matrix(2.54418 0 0 -2.54418 173.162 139.343)"/></g><g style="stroke-width:.524072"><path d="M0 0a44.8 44.8 0 0 0-11.418-8.292A44.8 44.8 0 0 0-22.779-.058l11.431 11.432z" style="fill:#fff;fill-opacity:1;fill-rule:nonzero;stroke:none;stroke-width:.524072" transform="matrix(2.54418 0 0 -2.54418 178.921 222.126)"/></g><g style="stroke-width:.524072"><path d="M0 0v-6.018l-12.045-12.041a44.5 44.5 0 0 0-3.361 17.028V0Z" style="fill:#fff;fill-opacity:1;fill-rule:nonzero;stroke:none;stroke-width:.524072" transform="matrix(2.54418 0 0 -2.54418 126.86 139.343)"/></g><g style="stroke-width:.524072"><path d="M0 0c0 21.475 17.471 38.947 38.945 38.947 21.476 0 38.948-17.472 38.948-38.947S60.421-38.945 38.945-38.945C17.471-38.945 0-21.475 0 0m-1.145 0c0-22.106 17.985-40.091 40.09-40.091 22.107 0 40.092 17.985 40.092 40.091S61.052 40.093 38.945 40.093C16.84 40.093-1.145 22.107-1.145 0" style="fill:#2056ae;fill-opacity:1;fill-rule:nonzero;stroke:none;stroke-width:.524072" transform="matrix(2.54418 0 0 -2.54418 50.783 149.873)"/></g><g style="stroke-width:.524072"><path d="m0 0-11.969 11.998v5.975H3.328l.002-1.032A44.5 44.5 0 0 0 0 0m-21.123-22.857a44.8 44.8 0 0 0-11.361 8.234l11.431 11.432 11.348-11.374a44.8 44.8 0 0 0-11.418-8.292m-24.451 40.83h15.406v-6.018L-42.213-.086a44.5 44.5 0 0 0-3.361 17.027zm38.099 20.656a27.15 27.15 0 0 0-13.648 3.653 27.16 27.16 0 0 0-13.648-3.653 27.2 27.2 0 0 0-13.651 3.653V18.017c0-18.507 10.359-34.592 25.596-42.78a49 49 0 0 1 1.703-.873q.862.422 1.703.873C-4.186-16.575 6.174-.49 6.174 18.017v24.265a27.16 27.16 0 0 0-13.649-3.653" style="fill:#2056ae;fill-opacity:1;fill-rule:nonzero;stroke:none;stroke-width:.524072" transform="matrix(2.54418 0 0 -2.54418 203.613 185.069)"/></g><g style="stroke-width:.524072"><path d="M0 0a9.075 9.075 0 0 0-9.076-9.076A9.075 9.075 0 0 0-18.152 0 9.076 9.076 0 1 0 0 0" style="fill:#fff;fill-opacity:1;fill-rule:nonzero;stroke:none;stroke-width:.524072" transform="matrix(2.54418 0 0 -2.54418 172.963 111.501)"/></g><g style="stroke-width:.524072"><path d="M0 0v5.714h-.967V.022C-2.555.27-3.846 1.676-3.846 3.313c0 1.803 1.569 3.31 3.373 3.31v.003c2.383.006 4.315 1.895 4.315 4.284 0 .857-.248 1.654-.68 2.326A7.127 7.127 0 0 0 0 0m-7.609 7.11a7.127 7.127 0 0 0 6.642 7.112V8.513H0v5.688c1.586-.244 2.867-1.654 2.867-3.291 0-1.802-1.553-3.294-3.351-3.294v-.002c-2.389-.007-4.323-1.912-4.323-4.301 0-.86.25-1.658.678-2.33a7.14 7.14 0 0 0-3.48 6.127m15.254 0a8.126 8.126 0 0 1-8.047 8.127h-.082A8.126 8.126 0 0 1-8.611 7.11 8.126 8.126 0 0 1-.705-1.015c.074-.006.232-.005.232-.005a8.13 8.13 0 0 1 8.118 8.13" style="fill:#ed1c24;fill-opacity:1;fill-rule:nonzero;stroke:none;stroke-width:.524072" transform="matrix(2.54418 0 0 -2.54418 151.1 129.596)"/></g></g></svg>